<svg xmlns="http://www.w3.org/2000/svg" xmlns:xlink="http://www.w3.org/1999/xlink" width="100" zoomAndPan="magnify" viewBox="0 0 75 42.75" height="57" preserveAspectRatio="xMidYMid meet" version="1.0"><defs><g/><clipPath id="571053598b"><path d="M 17.703125 4.25 L 57.222656 4.25 L 57.222656 29.601562 L 17.703125 29.601562 Z M 17.703125 4.25 " clip-rule="nonzero"/></clipPath></defs><g clip-path="url(#571053598b)"><path fill="#ffffff" d="M 53.214844 23.371094 C 50.992188 27.527344 43.410156 26.710938 43.386719 21.359375 L 31.355469 21.359375 C 30.664062 22.578125 30.613281 23.691406 29.832031 24.542969 C 25.230469 29.550781 17.5625 21.558594 23.222656 17.332031 C 22.566406 16.046875 21.617188 15.769531 21.359375 14.648438 C 19.785156 7.800781 30.273438 6.070312 30.847656 12.632812 L 43.046875 12.632812 C 43.835938 11.628906 43.515625 10.84375 44.0625 9.949219 C 46.15625 6.53125 52.195312 7.160156 53.382812 10.957031 C 54.035156 13.035156 52.988281 15.445312 51.519531 16.660156 C 53.292969 18.195312 54.445312 21.066406 53.214844 23.371094 Z M 56.847656 18.75 C 56.628906 18.015625 56.324219 17.308594 55.941406 16.640625 C 56.984375 14.738281 57.476562 12.34375 56.722656 9.933594 C 55.660156 6.535156 52.320312 4.25 48.410156 4.25 C 45.3125 4.25 42.570312 5.710938 41.074219 8.152344 C 40.855469 8.507812 40.699219 8.855469 40.578125 9.171875 L 33.425781 9.171875 C 32.101562 6.644531 29.496094 5.054688 26.335938 5.054688 C 23.636719 5.054688 21.066406 6.246094 19.453125 8.246094 C 17.871094 10.207031 17.335938 12.753906 17.949219 15.414062 C 18.117188 16.15625 18.410156 16.753906 18.726562 17.234375 C 17.648438 19.125 17.414062 21.339844 18.148438 23.503906 C 19.34375 27.039062 22.832031 29.601562 26.441406 29.601562 C 28.679688 29.601562 30.800781 28.632812 32.417969 26.871094 C 33.050781 26.183594 33.433594 25.460938 33.699219 24.820312 L 40.65625 24.820312 C 41.984375 27.613281 44.90625 29.46875 48.457031 29.46875 C 51.820312 29.46875 54.828125 27.753906 56.304688 24.988281 C 57.296875 23.128906 57.492188 20.914062 56.847656 18.75 " fill-opacity="1" fill-rule="evenodd"/></g><g fill="#ffffff" fill-opacity="1"><g transform="translate(25.583695, 38.347569)"><g><path d="M 1.3125 -1.890625 L 1.71875 -1.890625 L 1.078125 0 L 0.640625 0 L 0 -1.890625 L 0.40625 -1.890625 L 0.765625 -0.765625 C 0.773438 -0.691406 0.789062 -0.613281 0.8125 -0.53125 C 0.832031 -0.445312 0.847656 -0.382812 0.859375 -0.34375 C 0.867188 -0.425781 0.898438 -0.566406 0.953125 -0.765625 Z M 1.3125 -1.890625 "/></g></g></g><g fill="#ffffff" fill-opacity="1"><g transform="translate(27.96005, 38.347569)"><g><path d="M 1.328125 0 L 0.234375 0 L 0.234375 -1.890625 L 1.328125 -1.890625 L 1.328125 -1.5625 L 0.640625 -1.5625 L 0.640625 -1.140625 L 1.28125 -1.140625 L 1.28125 -0.8125 L 0.640625 -0.8125 L 0.640625 -0.328125 L 1.328125 -0.328125 Z M 1.328125 0 "/></g></g></g><g fill="#ffffff" fill-opacity="1"><g transform="translate(30.098679, 38.347569)"><g><path d="M 0.96875 0 L 0.5625 0 L 0.5625 -1.546875 L 0.046875 -1.546875 L 0.046875 -1.890625 L 1.46875 -1.890625 L 1.46875 -1.546875 L 0.96875 -1.546875 Z M 0.96875 0 "/></g></g></g><g fill="#ffffff" fill-opacity="1"><g transform="translate(32.287694, 38.347569)"><g><path d="M 1.328125 0 L 0.234375 0 L 0.234375 -1.890625 L 1.328125 -1.890625 L 1.328125 -1.5625 L 0.640625 -1.5625 L 0.640625 -1.140625 L 1.28125 -1.140625 L 1.28125 -0.8125 L 0.640625 -0.8125 L 0.640625 -0.328125 L 1.328125 -0.328125 Z M 1.328125 0 "/></g></g></g><g fill="#ffffff" fill-opacity="1"><g transform="translate(34.426322, 38.347569)"><g><path d="M 0.640625 -1.046875 L 0.765625 -1.046875 C 0.890625 -1.046875 0.984375 -1.066406 1.046875 -1.109375 C 1.109375 -1.148438 1.140625 -1.21875 1.140625 -1.3125 C 1.140625 -1.394531 1.109375 -1.457031 1.046875 -1.5 C 0.984375 -1.539062 0.890625 -1.5625 0.765625 -1.5625 L 0.640625 -1.5625 Z M 0.640625 -0.71875 L 0.640625 0 L 0.234375 0 L 0.234375 -1.890625 L 0.78125 -1.890625 C 1.039062 -1.890625 1.234375 -1.84375 1.359375 -1.75 C 1.484375 -1.65625 1.546875 -1.515625 1.546875 -1.328125 C 1.546875 -1.210938 1.515625 -1.109375 1.453125 -1.015625 C 1.390625 -0.929688 1.300781 -0.867188 1.1875 -0.828125 C 1.46875 -0.398438 1.65625 -0.125 1.75 0 L 1.296875 0 L 0.84375 -0.71875 Z M 0.640625 -0.71875 "/></g></g></g><g fill="#ffffff" fill-opacity="1"><g transform="translate(36.829808, 38.347569)"><g><path d="M 0.234375 0 L 0.234375 -1.890625 L 0.640625 -1.890625 L 0.640625 0 Z M 0.234375 0 "/></g></g></g><g fill="#ffffff" fill-opacity="1"><g transform="translate(38.362491, 38.347569)"><g><path d="M 1.90625 0 L 1.40625 0 L 0.578125 -1.421875 L 0.5625 -1.421875 C 0.582031 -1.171875 0.59375 -0.992188 0.59375 -0.890625 L 0.59375 0 L 0.234375 0 L 0.234375 -1.890625 L 0.734375 -1.890625 L 1.5625 -0.46875 C 1.550781 -0.71875 1.546875 -0.894531 1.546875 -1 L 1.546875 -1.890625 L 1.90625 -1.890625 Z M 1.90625 0 "/></g></g></g><g fill="#ffffff" fill-opacity="1"><g transform="translate(41.17037, 38.347569)"><g><path d="M 1.390625 0 L 1.25 -0.453125 L 0.5625 -0.453125 L 0.4375 0 L 0 0 L 0.671875 -1.890625 L 1.15625 -1.890625 L 1.828125 0 Z M 1.15625 -0.78125 C 1.03125 -1.1875 0.957031 -1.414062 0.9375 -1.46875 C 0.925781 -1.519531 0.914062 -1.5625 0.90625 -1.59375 C 0.882812 -1.488281 0.804688 -1.21875 0.671875 -0.78125 Z M 1.15625 -0.78125 "/></g></g></g><g fill="#ffffff" fill-opacity="1"><g transform="translate(43.652668, 38.347569)"><g><path d="M 0.640625 -1.046875 L 0.765625 -1.046875 C 0.890625 -1.046875 0.984375 -1.066406 1.046875 -1.109375 C 1.109375 -1.148438 1.140625 -1.21875 1.140625 -1.3125 C 1.140625 -1.394531 1.109375 -1.457031 1.046875 -1.5 C 0.984375 -1.539062 0.890625 -1.5625 0.765625 -1.5625 L 0.640625 -1.5625 Z M 0.640625 -0.71875 L 0.640625 0 L 0.234375 0 L 0.234375 -1.890625 L 0.78125 -1.890625 C 1.039062 -1.890625 1.234375 -1.84375 1.359375 -1.75 C 1.484375 -1.65625 1.546875 -1.515625 1.546875 -1.328125 C 1.546875 -1.210938 1.515625 -1.109375 1.453125 -1.015625 C 1.390625 -0.929688 1.300781 -0.867188 1.1875 -0.828125 C 1.46875 -0.398438 1.65625 -0.125 1.75 0 L 1.296875 0 L 0.84375 -0.71875 Z M 0.640625 -0.71875 "/></g></g></g><g fill="#ffffff" fill-opacity="1"><g transform="translate(46.056153, 38.347569)"><g><path d="M 0.234375 0 L 0.234375 -1.890625 L 0.640625 -1.890625 L 0.640625 0 Z M 0.234375 0 "/></g></g></g><g fill="#ffffff" fill-opacity="1"><g transform="translate(47.588836, 38.347569)"><g><path d="M 1.390625 0 L 1.25 -0.453125 L 0.5625 -0.453125 L 0.4375 0 L 0 0 L 0.671875 -1.890625 L 1.15625 -1.890625 L 1.828125 0 Z M 1.15625 -0.78125 C 1.03125 -1.1875 0.957031 -1.414062 0.9375 -1.46875 C 0.925781 -1.519531 0.914062 -1.5625 0.90625 -1.59375 C 0.882812 -1.488281 0.804688 -1.21875 0.671875 -0.78125 Z M 1.15625 -0.78125 "/></g></g></g><g fill="#ffffff" fill-opacity="1"><g transform="translate(28.023816, 34.206727)"><g><path d="M 0.9375 -3.375 L 1.59375 -1.15625 L 2.25 -3.375 L 3.21875 -3.375 L 1.984375 0 L 1.21875 0 L -0.046875 -3.375 Z M 0.9375 -3.375 "/></g></g></g><g fill="#ffffff" fill-opacity="1"><g transform="translate(31.206354, 34.206727)"><g><path d="M 1.453125 0.046875 C 1.234375 0.046875 1.039062 0.015625 0.875 -0.046875 C 0.707031 -0.117188 0.5625 -0.210938 0.4375 -0.328125 C 0.320312 -0.453125 0.234375 -0.585938 0.171875 -0.734375 C 0.117188 -0.890625 0.09375 -1.050781 0.09375 -1.21875 C 0.09375 -1.394531 0.117188 -1.5625 0.171875 -1.71875 C 0.234375 -1.882812 0.320312 -2.023438 0.4375 -2.140625 C 0.550781 -2.265625 0.691406 -2.363281 0.859375 -2.4375 C 1.035156 -2.507812 1.234375 -2.546875 1.453125 -2.546875 C 1.679688 -2.546875 1.878906 -2.507812 2.046875 -2.4375 C 2.210938 -2.363281 2.351562 -2.265625 2.46875 -2.140625 C 2.59375 -2.023438 2.679688 -1.890625 2.734375 -1.734375 C 2.796875 -1.578125 2.828125 -1.414062 2.828125 -1.25 C 2.828125 -1.195312 2.820312 -1.144531 2.8125 -1.09375 C 2.8125 -1.050781 2.804688 -1.007812 2.796875 -0.96875 L 1.046875 -0.96875 C 1.054688 -0.84375 1.101562 -0.75 1.1875 -0.6875 C 1.28125 -0.625 1.378906 -0.59375 1.484375 -0.59375 C 1.585938 -0.59375 1.679688 -0.613281 1.765625 -0.65625 C 1.847656 -0.707031 1.90625 -0.769531 1.9375 -0.84375 L 2.703125 -0.625 C 2.597656 -0.425781 2.441406 -0.265625 2.234375 -0.140625 C 2.023438 -0.015625 1.765625 0.046875 1.453125 0.046875 Z M 1.859375 -1.515625 C 1.835938 -1.640625 1.789062 -1.734375 1.71875 -1.796875 C 1.644531 -1.867188 1.550781 -1.90625 1.4375 -1.90625 C 1.320312 -1.90625 1.226562 -1.867188 1.15625 -1.796875 C 1.082031 -1.734375 1.039062 -1.640625 1.03125 -1.515625 Z M 1.859375 -1.515625 "/></g></g></g><g fill="#ffffff" fill-opacity="1"><g transform="translate(34.103889, 34.206727)"><g><path d="M 1.984375 -0.140625 C 1.859375 -0.0859375 1.722656 -0.0390625 1.578125 0 C 1.429688 0.03125 1.289062 0.046875 1.15625 0.046875 C 1.050781 0.046875 0.953125 0.03125 0.859375 0 C 0.765625 -0.0195312 0.679688 -0.0546875 0.609375 -0.109375 C 0.546875 -0.160156 0.492188 -0.234375 0.453125 -0.328125 C 0.421875 -0.421875 0.40625 -0.535156 0.40625 -0.671875 L 0.40625 -1.8125 L 0.09375 -1.8125 L 0.09375 -2.5 L 0.40625 -2.5 L 0.40625 -3.28125 L 1.296875 -3.28125 L 1.296875 -2.5 L 1.796875 -2.5 L 1.796875 -1.8125 L 1.296875 -1.8125 L 1.296875 -1 C 1.296875 -0.914062 1.3125 -0.851562 1.34375 -0.8125 C 1.382812 -0.78125 1.4375 -0.765625 1.5 -0.765625 C 1.539062 -0.765625 1.585938 -0.769531 1.640625 -0.78125 C 1.703125 -0.800781 1.757812 -0.820312 1.8125 -0.84375 Z M 1.984375 -0.140625 "/></g></g></g><g fill="#ffffff" fill-opacity="1"><g transform="translate(36.117913, 34.206727)"><g><path d="M 0.109375 -1.71875 C 0.109375 -1.925781 0.144531 -2.128906 0.21875 -2.328125 C 0.289062 -2.523438 0.394531 -2.703125 0.53125 -2.859375 C 0.675781 -3.015625 0.847656 -3.140625 1.046875 -3.234375 C 1.242188 -3.335938 1.472656 -3.390625 1.734375 -3.390625 C 2.035156 -3.390625 2.296875 -3.320312 2.515625 -3.1875 C 2.742188 -3.050781 2.910156 -2.875 3.015625 -2.65625 L 2.3125 -2.15625 C 2.28125 -2.238281 2.238281 -2.304688 2.1875 -2.359375 C 2.144531 -2.410156 2.097656 -2.453125 2.046875 -2.484375 C 1.992188 -2.515625 1.9375 -2.535156 1.875 -2.546875 C 1.820312 -2.554688 1.769531 -2.5625 1.71875 -2.5625 C 1.59375 -2.5625 1.488281 -2.535156 1.40625 -2.484375 C 1.320312 -2.429688 1.253906 -2.363281 1.203125 -2.28125 C 1.148438 -2.195312 1.109375 -2.101562 1.078125 -2 C 1.054688 -1.894531 1.046875 -1.789062 1.046875 -1.6875 C 1.046875 -1.570312 1.0625 -1.457031 1.09375 -1.34375 C 1.125 -1.238281 1.164062 -1.144531 1.21875 -1.0625 C 1.28125 -0.976562 1.351562 -0.910156 1.4375 -0.859375 C 1.519531 -0.816406 1.613281 -0.796875 1.71875 -0.796875 C 1.78125 -0.796875 1.835938 -0.800781 1.890625 -0.8125 C 1.941406 -0.832031 1.992188 -0.859375 2.046875 -0.890625 C 2.097656 -0.921875 2.144531 -0.960938 2.1875 -1.015625 C 2.238281 -1.066406 2.273438 -1.128906 2.296875 -1.203125 L 3.046875 -0.75 C 3.003906 -0.625 2.929688 -0.515625 2.828125 -0.421875 C 2.734375 -0.328125 2.625 -0.242188 2.5 -0.171875 C 2.382812 -0.109375 2.253906 -0.0546875 2.109375 -0.015625 C 1.972656 0.015625 1.835938 0.03125 1.703125 0.03125 C 1.472656 0.03125 1.257812 -0.015625 1.0625 -0.109375 C 0.863281 -0.210938 0.691406 -0.347656 0.546875 -0.515625 C 0.410156 -0.679688 0.300781 -0.867188 0.21875 -1.078125 C 0.144531 -1.285156 0.109375 -1.5 0.109375 -1.71875 Z M 0.109375 -1.71875 "/></g></g></g><g fill="#ffffff" fill-opacity="1"><g transform="translate(39.2292, 34.206727)"><g><path d="M 0.96875 0.046875 C 0.84375 0.046875 0.722656 0.0234375 0.609375 -0.015625 C 0.503906 -0.0546875 0.410156 -0.113281 0.328125 -0.1875 C 0.253906 -0.257812 0.195312 -0.34375 0.15625 -0.4375 C 0.113281 -0.53125 0.09375 -0.632812 0.09375 -0.75 C 0.09375 -0.875 0.117188 -0.988281 0.171875 -1.09375 C 0.222656 -1.207031 0.296875 -1.300781 0.390625 -1.375 C 0.484375 -1.445312 0.597656 -1.503906 0.734375 -1.546875 C 0.867188 -1.585938 1.015625 -1.609375 1.171875 -1.609375 C 1.367188 -1.609375 1.535156 -1.578125 1.671875 -1.515625 L 1.671875 -1.59375 C 1.671875 -1.707031 1.632812 -1.789062 1.5625 -1.84375 C 1.5 -1.90625 1.390625 -1.9375 1.234375 -1.9375 C 1.097656 -1.9375 0.96875 -1.910156 0.84375 -1.859375 C 0.726562 -1.816406 0.601562 -1.753906 0.46875 -1.671875 L 0.203125 -2.234375 C 0.535156 -2.441406 0.910156 -2.546875 1.328125 -2.546875 C 1.722656 -2.546875 2.03125 -2.457031 2.25 -2.28125 C 2.46875 -2.101562 2.578125 -1.835938 2.578125 -1.484375 L 2.578125 -1 C 2.578125 -0.914062 2.59375 -0.851562 2.625 -0.8125 C 2.65625 -0.78125 2.710938 -0.765625 2.796875 -0.765625 L 2.796875 0 C 2.710938 0.0195312 2.632812 0.03125 2.5625 0.03125 C 2.488281 0.0390625 2.421875 0.046875 2.359375 0.046875 C 2.203125 0.046875 2.082031 0.0195312 2 -0.03125 C 1.914062 -0.09375 1.859375 -0.179688 1.828125 -0.296875 L 1.8125 -0.390625 C 1.695312 -0.242188 1.566406 -0.132812 1.421875 -0.0625 C 1.285156 0.0078125 1.132812 0.046875 0.96875 0.046875 Z M 1.234375 -0.59375 C 1.285156 -0.59375 1.335938 -0.601562 1.390625 -0.625 C 1.453125 -0.644531 1.503906 -0.664062 1.546875 -0.6875 C 1.585938 -0.71875 1.617188 -0.75 1.640625 -0.78125 C 1.660156 -0.8125 1.671875 -0.84375 1.671875 -0.875 L 1.671875 -1.046875 C 1.617188 -1.066406 1.5625 -1.082031 1.5 -1.09375 C 1.4375 -1.113281 1.378906 -1.125 1.328125 -1.125 C 1.210938 -1.125 1.117188 -1.09375 1.046875 -1.03125 C 0.972656 -0.976562 0.9375 -0.914062 0.9375 -0.84375 C 0.9375 -0.769531 0.960938 -0.707031 1.015625 -0.65625 C 1.078125 -0.613281 1.148438 -0.59375 1.234375 -0.59375 Z M 1.234375 -0.59375 "/></g></g></g><g fill="#ffffff" fill-opacity="1"><g transform="translate(42.098235, 34.206727)"><g><path d="M 1.921875 -1.734375 C 1.742188 -1.734375 1.582031 -1.710938 1.4375 -1.671875 C 1.300781 -1.628906 1.195312 -1.566406 1.125 -1.484375 L 1.125 0 L 0.234375 0 L 0.234375 -2.5 L 1.046875 -2.5 L 1.046875 -2.03125 C 1.140625 -2.195312 1.25 -2.320312 1.375 -2.40625 C 1.507812 -2.5 1.65625 -2.546875 1.8125 -2.546875 C 1.875 -2.546875 1.910156 -2.546875 1.921875 -2.546875 Z M 1.921875 -1.734375 "/></g></g></g><g fill="#ffffff" fill-opacity="1"><g transform="translate(44.079009, 34.206727)"><g><path d="M 1.453125 0.046875 C 1.234375 0.046875 1.039062 0.015625 0.875 -0.046875 C 0.707031 -0.117188 0.5625 -0.210938 0.4375 -0.328125 C 0.320312 -0.453125 0.234375 -0.585938 0.171875 -0.734375 C 0.117188 -0.890625 0.09375 -1.050781 0.09375 -1.21875 C 0.09375 -1.394531 0.117188 -1.5625 0.171875 -1.71875 C 0.234375 -1.882812 0.320312 -2.023438 0.4375 -2.140625 C 0.550781 -2.265625 0.691406 -2.363281 0.859375 -2.4375 C 1.035156 -2.507812 1.234375 -2.546875 1.453125 -2.546875 C 1.679688 -2.546875 1.878906 -2.507812 2.046875 -2.4375 C 2.210938 -2.363281 2.351562 -2.265625 2.46875 -2.140625 C 2.59375 -2.023438 2.679688 -1.890625 2.734375 -1.734375 C 2.796875 -1.578125 2.828125 -1.414062 2.828125 -1.25 C 2.828125 -1.195312 2.820312 -1.144531 2.8125 -1.09375 C 2.8125 -1.050781 2.804688 -1.007812 2.796875 -0.96875 L 1.046875 -0.96875 C 1.054688 -0.84375 1.101562 -0.75 1.1875 -0.6875 C 1.28125 -0.625 1.378906 -0.59375 1.484375 -0.59375 C 1.585938 -0.59375 1.679688 -0.613281 1.765625 -0.65625 C 1.847656 -0.707031 1.90625 -0.769531 1.9375 -0.84375 L 2.703125 -0.625 C 2.597656 -0.425781 2.441406 -0.265625 2.234375 -0.140625 C 2.023438 -0.015625 1.765625 0.046875 1.453125 0.046875 Z M 1.859375 -1.515625 C 1.835938 -1.640625 1.789062 -1.734375 1.71875 -1.796875 C 1.644531 -1.867188 1.550781 -1.90625 1.4375 -1.90625 C 1.320312 -1.90625 1.226562 -1.867188 1.15625 -1.796875 C 1.082031 -1.734375 1.039062 -1.640625 1.03125 -1.515625 Z M 1.859375 -1.515625 "/></g></g></g></svg>